HIERARCHY
ROOT joint_0
{
	OFFSET 0.000000 0.000000 0.000000
	CHANNELS 6 Xposition Yposition Zposition Zrotation Yrotation Xrotation 
	JOINT joint_1
	{
		OFFSET 8.185791 -2.713684 100.414917
		CHANNELS 3 Zrotation Yrotation Xrotation
		JOINT joint_2
		{
			OFFSET -4.376465 -1.111145 91.934082
			CHANNELS 3 Zrotation Yrotation Xrotation
			JOINT joint_3
			{
				OFFSET -6.985840 -1.054016 91.669922
				CHANNELS 3 Zrotation Yrotation Xrotation
				JOINT joint_4
				{
					OFFSET 0.150391 -4.451904 123.526001
					CHANNELS 3 Zrotation Yrotation Xrotation
					JOINT joint_5
					{
						OFFSET 19.754150 -8.123901 80.916992
						CHANNELS 3 Zrotation Yrotation Xrotation
						End Site
						{
							OFFSET 0.000000 0.000000 0.000000
						}
					}
				}
				JOINT joint_6
				{
					OFFSET -6.477539 -28.517334 68.237061
					CHANNELS 3 Zrotation Yrotation Xrotation
					JOINT joint_7
					{
						OFFSET -20.564453 -115.426208 -21.139038
						CHANNELS 3 Zrotation Yrotation Xrotation
						JOINT joint_8
						{
							OFFSET 18.981934 -19.826172 -267.898926
							CHANNELS 3 Zrotation Yrotation Xrotation
							JOINT joint_9
							{
								OFFSET 11.562744 -19.325867 -235.478027
								CHANNELS 3 Zrotation Yrotation Xrotation
								End Site
								{
									OFFSET 0.000000 0.000000 0.000000
								}
							}
						}
					}
				}
				JOINT joint_10
				{
					OFFSET 7.033936 23.504700 70.088989
					CHANNELS 3 Zrotation Yrotation Xrotation
					JOINT joint_11
					{
						OFFSET 36.629639 112.486816 -14.036987
						CHANNELS 3 Zrotation Yrotation Xrotation
						JOINT joint_12
						{
							OFFSET 41.355225 -7.048523 -266.019897
							CHANNELS 3 Zrotation Yrotation Xrotation
							JOINT joint_13
							{
								OFFSET 5.858887 29.785156 -234.603027
								CHANNELS 3 Zrotation Yrotation Xrotation
								End Site
								{
									OFFSET 0.000000 0.000000 0.000000
								}
							}
						}
					}
				}
			}
		}
	}
	JOINT joint_14
	{
		OFFSET -8.917725 -79.985535 -99.035034
		CHANNELS 3 Zrotation Yrotation Xrotation
		JOINT joint_15
		{
			OFFSET -32.739502 -31.478882 -502.570984
			CHANNELS 3 Zrotation Yrotation Xrotation
			JOINT joint_16
			{
				OFFSET 7.393066 -29.352966 -399.008011
				CHANNELS 3 Zrotation Yrotation Xrotation
				JOINT joint_17
				{
					OFFSET 178.013916 -26.060303 -71.875002
					CHANNELS 3 Zrotation Yrotation Xrotation
					End Site
					{
						OFFSET 0.000000 0.000000 0.000000
					}
				}
			}
		}
	}
	JOINT joint_18
	{
		OFFSET 1.900879 81.159851 -98.481018
		CHANNELS 3 Zrotation Yrotation Xrotation
		JOINT joint_19
		{
			OFFSET -15.120850 31.602051 -503.400024
			CHANNELS 3 Zrotation Yrotation Xrotation
			JOINT joint_20
			{
				OFFSET -16.653076 23.887695 -399.091988
				CHANNELS 3 Zrotation Yrotation Xrotation
				JOINT joint_21
				{
					OFFSET 179.618164 -1.217651 -72.592001
					CHANNELS 3 Zrotation Yrotation Xrotation
					End Site
					{
						OFFSET 0.000000 0.000000 0.000000
					}
				}
			}
		}
	}
}
MOTION
Frames: 6
Frame Time: 0.016667
-3133.630127 765.575562 1098.040039 -0.346682 -1.302598 0.176091 -0.129580 0.401355 -0.398250 -0.112819 -0.072134 0.078480 -0.118970 0.097624 -0.027280 0.000537 -0.044209 -0.020349 0.000000 0.000000 0.000000 -0.178802 0.117096 0.339968 0.093579 -0.088011 1.211099 -0.025423 0.232186 -0.129720 0.000000 0.000000 0.000000 0.222964 0.226434 1.376609 0.009443 0.691512 -0.133883 0.053597 0.401745 0.100505 0.000000 0.000000 0.000000 0.088064 1.269461 -1.680122 -0.187812 1.010146 2.792945 -0.108841 -0.822832 -0.164404 0.000000 0.000000 0.000000 0.311141 1.443511 0.276769 0.322705 0.802892 -1.467485 0.167238 -0.728611 0.062623 0.000000 0.000000 0.000000 
-3133.079590 765.680176 1098.006958 -0.427267 -1.236019 0.184163 -0.156122 0.396219 -0.390448 -0.139852 -0.071520 0.074819 -0.145523 0.097287 -0.024515 0.000525 -0.124613 -0.053306 0.000000 0.000000 0.000000 -0.182530 0.114494 0.329709 0.095796 -0.097185 1.231669 -0.024356 0.220778 -0.127010 0.000000 0.000000 0.000000 0.243897 0.222824 1.365004 0.035230 0.672056 -0.094892 0.066241 0.505840 0.075698 0.000000 0.000000 0.000000 0.118651 1.214919 -1.713232 -0.165731 1.021317 2.826008 -0.084880 -0.845419 -0.158043 0.000000 0.000000 0.000000 0.338678 1.417866 0.264396 0.351099 0.792641 -1.476523 0.194182 -0.748887 0.073371 0.000000 0.000000 0.000000 
-3132.445312 765.777771 1097.973022 -0.526694 -1.156014 0.193629 -0.182102 0.390440 -0.383478 -0.166152 -0.070455 0.073730 -0.171564 0.096817 -0.021998 0.000554 -0.214823 -0.090430 0.000000 0.000000 0.000000 -0.195565 0.115276 0.317071 0.097967 -0.105280 1.253289 -0.022760 0.205209 -0.120458 0.000000 0.000000 0.000000 0.258806 0.218417 1.349266 0.065651 0.649484 -0.048846 0.080914 0.626932 0.044584 0.000000 0.000000 0.000000 0.156153 1.147844 -1.751474 -0.138452 1.034169 2.866329 -0.055360 -0.873108 -0.150186 0.000000 0.000000 0.000000 0.371693 1.384734 0.249359 0.385308 0.782641 -1.483365 0.226668 -0.773375 0.086327 0.000000 0.000000 0.000000 
-3131.681396 765.828491 1097.932983 -0.646399 -1.064139 0.198741 -0.205456 0.382472 -0.374754 -0.190000 -0.070084 0.070263 -0.194900 0.096529 -0.018680 -0.000521 -0.299430 -0.120705 0.000000 0.000000 0.000000 -0.216291 0.122234 0.305294 0.100254 -0.109498 1.280665 -0.021165 0.190014 -0.113252 0.000000 0.000000 0.000000 0.268429 0.213611 1.341144 0.096482 0.630950 -0.006666 0.097546 0.761613 0.021173 0.000000 0.000000 0.000000 0.201548 1.069926 -1.781270 -0.103513 1.054322 2.901153 -0.017018 -0.907454 -0.139745 0.000000 0.000000 0.000000 0.411407 1.347134 0.242209 0.427082 0.777446 -1.491604 0.265503 -0.810543 0.101762 0.000000 0.000000 0.000000 
-3130.767578 765.800415 1097.886963 -0.788223 -0.960852 0.195110 -0.223324 0.366723 -0.367308 -0.208121 -0.067149 0.067713 -0.212742 0.093501 -0.016714 -0.003507 -0.362163 -0.134171 0.000000 0.000000 0.000000 -0.244043 0.139392 0.298311 0.102613 -0.105626 1.317400 -0.019962 0.179064 -0.106929 0.000000 0.000000 0.000000 0.274330 0.210708 1.347129 0.124553 0.622570 0.024624 0.115833 0.905508 0.015086 0.000000 0.000000 0.000000 0.255799 0.980291 -1.791197 -0.058817 1.087102 2.918763 0.033062 -0.950930 -0.125905 0.000000 0.000000 0.000000 0.458611 1.305912 0.251800 0.477722 0.779622 -1.505536 0.311438 -0.863779 0.119956 0.000000 0.000000 0.000000 
-3129.723389 765.710327 1097.834961 -0.953015 -0.846964 0.184542 -0.236391 0.346606 -0.359452 -0.221474 -0.062591 0.063198 -0.225652 0.088897 -0.014108 -0.008274 -0.412450 -0.135229 0.000000 0.000000 0.000000 -0.278837 0.164911 0.294736 0.105025 -0.095391 1.361488 -0.018891 0.170001 -0.100113 0.000000 0.000000 0.000000 0.277418 0.208482 1.364206 0.151562 0.621280 0.047946 0.135858 1.060394 0.019668 0.000000 0.000000 0.000000 0.318992 0.879221 -1.786343 -0.004825 1.131237 2.923933 0.094210 -1.003291 -0.108901 0.000000 0.000000 0.000000 0.513343 1.261918 0.274059 0.536887 0.786840 -1.523480 0.364494 -0.930517 0.140934 0.000000 0.000000 0.000000 
